# xmcd
#
# Track frame offsets: 
#        150
#        19883
#        35830
#        67749
#        90006
#        112657
#        137704
#        174778
#        199268
#        219573
#        237552
#        254800
#        273229
#        294562
#        312814
#
# Disc length: 4439 seconds
#
# Revision: 0
# Processed by: cddbd v1.5.2PL0 Copyright (c) Steve Scherf et al.
# Submitted via: ExactAudioCopy v0.99pb5
#
DISCID=d111550f
DTITLE=Feine Herren - Sterngucker
DYEAR=1900
DGENRE=Blues
TTITLE0=Tag und Nacht
TTITLE1=Nur halb so schön
TTITLE2=Märchenfrau
TTITLE3=Seamus und Paddy
TTITLE4=Die blonde Susanne
TTITLE5=Regenbogensong
TTITLE6=Sterngucker
TTITLE7=Mond in der Nacht
TTITLE8=Wenn der Vulkan ausbricht
TTITLE9=Schnelle Nummer
TTITLE10=Urlaubsgefühle
TTITLE11=Die Figur
TTITLE12=Verarsch mich nicht
TTITLE13=Da muss ich weg
TTITLE14=Lummerland
EXTD=
EXTT0=
EXTT1=
EXTT2=
EXTT3=
EXTT4=
EXTT5=
EXTT6=
EXTT7=
EXTT8=
EXTT9=
EXTT10=
EXTT11=
EXTT12=
EXTT13=
EXTT14=
PLAYORDER=
